<svg width="260" height="368" fill="none" xmlns="http://www.w3.org/2000/svg"><g clip-path="url(#a)"><path d="M10.04 332.38a50.05 50.05 0 0 1 6.4-63 399.363 399.363 0 0 0 62.33-81.19c24.25-41.41 42-87.64 52.82-137.39a64.5 64.5 0 0 1 117.283-21.19 64.502 64.502 0 0 1 8.777 48.58c-13.68 63.09-36.42 122-67.57 175.24a536.985 536.985 0 0 1-66.7 90.93c-31.11 34-85.95 29.63-111.3-8.88l-2.04-3.1z" fill="#5AA129"/><path d="M173.62 76.51c10.494 0 19-8.507 19-19 0-10.494-8.506-19-19-19-10.493 0-19 8.506-19 19 0 10.493 8.507 19 19 19z" fill="#fff"/><path d="M173.62 76.89A19.38 19.38 0 1 1 193 57.52a19.387 19.387 0 0 1-19.38 19.37zm0-38a18.627 18.627 0 0 0-17.212 11.5 18.63 18.63 0 1 0 35.842 7.13 18.651 18.651 0 0 0-18.63-18.63z" fill="#000"/><path d="M209.62 95.51c10.494 0 19-8.507 19-19 0-10.494-8.506-19-19-19-10.493 0-19 8.506-19 19 0 10.493 8.507 19 19 19z" fill="#fff"/><path d="M209.62 95.89A19.38 19.38 0 1 1 229 76.52a19.387 19.387 0 0 1-19.38 19.37zm0-38a18.627 18.627 0 0 0-17.212 11.5 18.63 18.63 0 1 0 35.842 7.13 18.651 18.651 0 0 0-18.63-18.63z" fill="#000"/><path d="M34.34 300.19c-2.06 1.93-23.9 37.06.08 28 23.98-9.06 40-15.11 47.92-28.13 7.92-13.02 22-11.06 26.94-25.07 4.94-14.01 13.87-54.06 31.84-65.1 17.97-11.04 36.88-40.11 40.84-54.12 3.96-14.01 20.93-24 20.93-24l-56.07-26.85s-9.84 60-21.79 79.05c-11.95 19.05-62.76 90.22-90.69 116.22z" fill="#7CCD27"/><path d="M234.63 61.52a4.996 4.996 0 0 1-4.48-2.77c-7.08-14.15-11.65-20-20.4-26.14-6.75-4.72-22.28-3.12-27.19-2.18a4.998 4.998 0 0 1-5.977-3.95 4.998 4.998 0 0 1 4.107-5.87c2.36-.45 23.4-4.17 34.8 3.81 11.4 7.98 16.65 16 23.6 29.86a4.999 4.999 0 0 1-4.46 7.24z" fill="#65ECFF"/><path d="M234.62 61.89a5.36 5.36 0 0 1-4.81-3c-7-14.09-11.59-19.92-20.27-26-6.64-4.65-22-3-26.91-2.12a5.401 5.401 0 0 1-6.29-4.28 5.363 5.363 0 0 1 .838-4.027 5.373 5.373 0 0 1 3.442-2.253c2.37-.46 23.56-4.19 35.08 3.87s16.75 16 23.73 30a5.384 5.384 0 0 1 .29 4.11 5.38 5.38 0 0 1-5.09 3.67l-.01.03zm-40-32.87c5.67 0 11.76.75 15.38 3.29 8.8 6.16 13.4 12 20.51 26.28a4.617 4.617 0 0 0 4.14 2.55 4.489 4.489 0 0 0 2.06-.49 4.622 4.622 0 0 0 2.07-6.2c-6.92-13.84-12.2-21.82-23.49-29.72-11.29-7.9-32.17-4.2-34.51-3.76a4.64 4.64 0 0 0-3.68 5.41 4.627 4.627 0 0 0 5.41 3.68 71.386 71.386 0 0 1 12.04-1.04h.07zM212.55 128.97a14.997 14.997 0 0 1-18.38 10.53l-1-.23c-.79-.17-1.78-.36-2.81-.56l-2.07-.4-1-.2c-.713-.14-1.453-.3-2.22-.48l-1-.23c-.65-.15-1.33-.31-2-.49l-.81-.22h-.1l-.85-.23c-1.71-.48-3.52-1-5.4-1.73l-.87-.32-.18-.07c-.29-.11-.59-.22-.89-.35a65.064 65.064 0 0 1-5.38-2.36l-.85-.43-.26-.13-.78-.41-.8-.43c-1.51-.82-2.95-1.65-4.33-2.47l-.77-.46-1.09-.67-.76-.49a84.57 84.57 0 0 1-4.88-3.32l-.69-.51-.75-.58a58.589 58.589 0 0 1-4.3-3.6l-.55-.51c-.47-.45-.94-.9-1.39-1.35l-.52-.54a50.386 50.386 0 0 1-3.82-4.36c-.11-.14-.22-.28-.31-.42a52.283 52.283 0 0 1-3.52-5.17 14.999 14.999 0 0 1 18.75-21.59 14.616 14.616 0 0 1 5.42 3.91c.24.26.463.534.67.82.333.432.64.882.92 1.35a23.771 23.771 0 0 0 3.08 4.11c.53.58 1.13 1.16 1.79 1.76a41.202 41.202 0 0 0 4.88 3.75l.48.32c1.5 1 3.21 2 5.17 3.11l.92.5.28.15a40.535 40.535 0 0 0 5.85 2.58c.55.2 1.09.38 1.62.55 1.92.6 3.77 1.05 5.55 1.43l1.49.3 1.95.38c1.38.26 2.7.52 4 .82.69.14 1.36.31 2 .49a14.996 14.996 0 0 1 10.51 18.45z" fill="#000"/><path d="M198.13 140.52a15.565 15.565 0 0 1-4-.52h-.11c-.25-.07-.57-.15-.93-.22-.72-.16-1.6-.33-2.53-.51l-.27-.05-1.24-.24-.83-.16-.84-.17h-.16c-.71-.14-1.46-.3-2.23-.49l-.81-.18h-.19c-.66-.15-1.34-.31-2-.49l-.82-.22-.76-.21h-.18c-1.86-.52-3.68-1.11-5.44-1.74l-.8-.3-.41-.15c-.25-.1-.5-.19-.76-.31-1.69-.65-3.47-1.43-5.4-2.36l-.65-.34-.2-.1-.14-.07-.1-.05c-.29-.14-.55-.28-.81-.42l-.3-.16-.51-.28c-1.36-.73-2.78-1.54-4.34-2.47l-.61-.36-.17-.1-1.09-.68c-.27-.16-.52-.33-.78-.5-1.63-1-3.29-2.15-4.89-3.33l-.46-.34-.24-.17-.76-.59c-1.51-1.16-3-2.38-4.33-3.62l-.55-.52c-.52-.49-1-.93-1.4-1.36-.19-.18-.36-.37-.53-.55a47.34 47.34 0 0 1-3.85-4.4 4.959 4.959 0 0 1-.34-.45 53.068 53.068 0 0 1-3.53-5.19 15.495 15.495 0 0 1 1.593-18.142 15.488 15.488 0 0 1 17.747-4.088 15.19 15.19 0 0 1 5.6 4c.24.26.47.55.7.85.338.446.652.91.94 1.39a22.903 22.903 0 0 0 3 4c.48.52 1 1.07 1.76 1.73a39.85 39.85 0 0 0 4.82 3.7l.47.32c1.52 1 3.2 2 5.15 3.09l.91.5.29.15a40.484 40.484 0 0 0 5.77 2.55l1.6.54c1.68.52 3.43 1 5.51 1.42l1.94.39 1.48.29c1.28.24 2.66.5 4 .82.69.14 1.37.31 2 .49a15.52 15.52 0 0 1 10.87 19 15.53 15.53 0 0 1-14.86 11.37zm-3.79-1.51a14.464 14.464 0 0 0 15.254-5.112 14.46 14.46 0 0 0 2.516-5.058 14.52 14.52 0 0 0-10.17-17.81c-.66-.18-1.32-.35-2-.48-1.36-.32-2.72-.58-4-.82l-1.5-.29-1.95-.39c-2.11-.45-3.89-.91-5.6-1.45-.54-.17-1.08-.35-1.64-.55a41.392 41.392 0 0 1-5.92-2.61l-.28-.15-.91-.5c-2-1.11-3.68-2.13-5.21-3.13l-.49-.33a41.744 41.744 0 0 1-4.93-3.79c-.75-.68-1.33-1.25-1.83-1.8a24.365 24.365 0 0 1-3.14-4.19c-.269-.45-.563-.883-.88-1.3a8.474 8.474 0 0 0-.65-.78 14.15 14.15 0 0 0-5.24-3.79 14.49 14.49 0 0 0-18.09 20.8 49.45 49.45 0 0 0 3.49 5.12c.1.15.19.27.28.39a51.112 51.112 0 0 0 3.81 4.35l.51.53c.43.43.88.86 1.33 1.29l.6.56c1.34 1.23 2.77 2.43 4.26 3.57l.75.58.24.17.44.33c1.6 1.17 3.23 2.28 4.86 3.3.26.18.5.34.75.49l1.1.67.16.1.59.35c1.56.93 3 1.73 4.32 2.47l.5.27.3.16.77.4.14.07.31.16.67.34c1.88.91 3.63 1.68 5.32 2.33l.73.29.16.06h.11v.52l.18-.46.78.28c1.74.63 3.55 1.21 5.38 1.73l.18.05.65.17v.52l.14-.48.8.21c.67.18 1.35.34 2 .49h.2l.8.18c.77.18 1.5.34 2.21.48h.16l.82.17.83.16 1.24.34h.27c.94.18 1.82.35 2.55.51.35.07.66.15.92.22l.05.09zM176.12 56.64h-2.57l1.83-1.83a.376.376 0 0 0 0-.53.375.375 0 0 0-.53 0l-1.83 1.83v-2.59a.381.381 0 0 0-.38-.38.374.374 0 0 0-.345.236.376.376 0 0 0-.025.144v2.59l-1.84-1.83a.37.37 0 0 0-.53 0 .39.39 0 0 0 0 .53l1.84 1.83h-2.6a.379.379 0 0 0-.228.621.378.378 0 0 0 .228.13h2.6l-1.86 1.8a.383.383 0 0 0-.073.407.382.382 0 0 0 .343.232.378.378 0 0 0 .26-.11l1.84-1.84v2.6a.371.371 0 0 0 .635.262.382.382 0 0 0 .115-.262v-2.6l1.83 1.84c.072.07.169.11.27.11a.378.378 0 0 0 .343-.519.374.374 0 0 0-.083-.12l-1.81-1.8h2.59a.38.38 0 1 0 0-.75h-.02zM213.12 75.64h-2.57l1.83-1.83a.376.376 0 0 0 0-.53.375.375 0 0 0-.53 0l-1.83 1.83v-2.59a.381.381 0 0 0-.38-.38.374.374 0 0 0-.345.236.376.376 0 0 0-.025.144v2.59l-1.84-1.83a.37.37 0 0 0-.53 0 .39.39 0 0 0 0 .53l1.84 1.83h-2.6a.379.379 0 0 0-.228.621.378.378 0 0 0 .228.13h2.6l-1.86 1.8a.383.383 0 0 0-.073.407.382.382 0 0 0 .343.232.378.378 0 0 0 .26-.11l1.84-1.84v2.6a.371.371 0 0 0 .635.262.382.382 0 0 0 .115-.262v-2.6l1.83 1.84c.072.07.169.11.27.11a.378.378 0 0 0 .343-.519.374.374 0 0 0-.083-.12l-1.81-1.8h2.59a.38.38 0 1 0 0-.75h-.02z" fill="#000"/><path d="M150.91 121.69a50.217 50.217 0 0 1-3.82-4.36c-.11-.14-.22-.28-.31-.42 2.5-1.42 4.84-1.73 5.76-.61.92 1.12.18 3.27-1.63 5.39z" fill="#fff"/><path d="m150.93 122.24-.29-.29a51.641 51.641 0 0 1-3.84-4.39 3.375 3.375 0 0 1-.33-.45l-.22-.33.35-.2c2.76-1.57 5.2-1.77 6.23-.52 1.03 1.25.36 3.53-1.63 5.87l-.27.31zm-3.59-5.21a49.483 49.483 0 0 0 3.53 4.07c1.5-1.88 2.06-3.74 1.36-4.6-.7-.86-2.68-.63-4.89.53z" fill="#000"/><path d="M160.39 88.13c-2.75 2.44-5.75 3.43-7 2.22s-.39-3.63 1.54-6.13c2.099.862 3.968 2.2 5.46 3.91z" fill="#fff"/><path d="M154.88 91.19a2.344 2.344 0 0 1-1.71-.62c-1.22-1.21-.62-3.88 1.5-6.62l.18-.23.27.11a15.043 15.043 0 0 1 5.55 4l.25.28-.28.25c-2.09 1.83-4.19 2.83-5.76 2.83zm.21-6.55c-1.68 2.28-2.27 4.52-1.39 5.4.88.88 3.66.12 6.16-2a14.192 14.192 0 0 0-4.77-3.36v-.04z" fill="#000"/><path d="M165.06 94.41c-2.66 2.23-5.47 3.1-6.63 1.94-1.16-1.16-.1-4.54 2.63-7.4.333.432.64.883.92 1.35a23.767 23.767 0 0 0 3.08 4.11z" fill="#fff"/><path d="M159.88 97.19a2.343 2.343 0 0 1-1.71-.62c-1.44-1.44-.32-4.85 2.62-7.92l.3-.32.27.35c.34.441.654.902.94 1.38a22.77 22.77 0 0 0 3 4.05l.26.29-.3.25a9.32 9.32 0 0 1-5.38 2.54zm1.15-7.7c-2.35 2.6-3.4 5.49-2.33 6.55 1.07 1.06 3.4.21 5.82-1.71a24.027 24.027 0 0 1-2.86-3.88c-.187-.293-.397-.6-.63-.92v-.04z" fill="#000"/><path d="M171.73 99.92a41.153 41.153 0 0 1-4.88-3.73 6.966 6.966 0 0 0-.51.48c-2.93 2.93-4.23 6.38-2.91 7.7 1.32 1.32 4.2.22 6.94-2.21.253-.207.503-.437.75-.69.381-.38.742-.781 1.08-1.2l-.47-.35z" fill="#fff"/><path d="M164.88 105.19a2.333 2.333 0 0 1-1.71-.62c-1.5-1.49-.22-5.1 2.91-8.23.17-.17.35-.34.52-.49l.26-.23.24.23a40.159 40.159 0 0 0 4.84 3.71l.82.55-.26.32c-.344.43-.711.84-1.1 1.23-.247.25-.508.487-.78.71-2.07 1.82-4.17 2.82-5.74 2.82zm2-8.56-.24.24c-3 3-3.94 6.14-2.91 7.17 1.03 1.03 3.85.06 6.42-2.22.26-.22.5-.45.75-.69.25-.24.54-.57.79-.85l-.14-.09a42.337 42.337 0 0 1-4.7-3.52l.03-.04z" fill="#000"/><path d="M177.62 103.37a41.505 41.505 0 0 1-5.34-3.07c-.15.17-.29.35-.44.54-2.52 3.3-3.35 6.89-1.86 8 1.49 1.11 4.19-.34 6.58-3.11.22-.24.44-.5.65-.78.33-.428.634-.875.91-1.34l-.5-.24z" fill="#fff"/><path d="M171.09 109.58a2.183 2.183 0 0 1-1.34-.42c-.84-.65-1.09-1.92-.71-3.58a13.64 13.64 0 0 1 2.5-5c.15-.2.3-.39.46-.57l.22-.25.27.19a41.122 41.122 0 0 0 5.29 3l.89.44-.21.35c-.276.5-.58.984-.91 1.45-.22.29-.45.56-.67.81-1.99 2.26-4.18 3.58-5.79 3.58zm1.26-8.78-.21.27a12.782 12.782 0 0 0-2.37 4.68c-.31 1.34-.15 2.37.43 2.81 1.16.89 3.83-.45 6.08-3.05.23-.26.44-.51.64-.78s.47-.64.67-.95l-.14-.07a42.322 42.322 0 0 1-5.1-2.91z" fill="#000"/><path d="M184.43 106.58c-1.9 2.44-4.12 3.72-5.45 3-1.33-.72-1.31-2.94-.4-5.54a40.538 40.538 0 0 0 5.85 2.54z" fill="#fff"/><path d="M179.86 110.13a1.998 1.998 0 0 1-1.06-.27c-1.37-.78-1.59-3.08-.57-6l.14-.41.39.21a39.165 39.165 0 0 0 5.79 2.53l.49.18-.32.41c-1.65 2.16-3.45 3.35-4.86 3.35zm-1.06-5.59c-.72 2.28-.58 4.13.37 4.67s2.91-.41 4.64-2.46a41.843 41.843 0 0 1-5.01-2.21z" fill="#000"/><path d="M191.6 108.56c-1.69 1.79-3.48 2.64-4.62 2-.87-.5-1.16-1.78-.93-3.41 1.92.58 3.77 1.04 5.55 1.41z" fill="#fff"/><path d="M187.86 111.19a2.063 2.063 0 0 1-1.07-.28c-1-.56-1.37-1.91-1.11-3.79l.06-.43.42.13c1.69.52 3.44 1 5.52 1.42l.65.14-.46.48c-1.42 1.47-2.85 2.33-4.01 2.33zm-1.49-3.52c-.11 1.3.18 2.23.8 2.59.83.48 2.24-.08 3.68-1.43-1.64-.42-3.09-.79-4.48-1.21v.05z" fill="#000"/><path d="M199.04 110.06c-1.8 2.13-3.82 3.19-5.06 2.48-.91-.52-1.19-1.92-.89-3.68l1.95.38c1.38.26 2.7.52 4 .82z" fill="#fff"/><path d="M194.84 113.13c-.351 0-.696-.094-1-.27-1-.58-1.42-2.07-1.08-4.07l.07-.38.83.17 1.49.29c1.28.24 2.65.51 4 .82l.59.14-.39.47c-1.56 1.81-3.2 2.83-4.51 2.83zm-1.44-3.83c-.18 1.46.1 2.53.77 2.91.95.54 2.58-.23 4.17-1.93-1.15-.25-2.29-.47-3.37-.68l-1.49-.28-.08-.02z" fill="#000"/><path d="M151.67 121.69a58.589 58.589 0 0 1-4.3-3.6l-.55-.51c1.71-1.82 3.52-2.68 4.66-2 1.32.73 1.33 3.27.19 6.11z" fill="#fff"/><path d="m151.84 122.28-.4-.3c-1.51-1.15-3-2.37-4.32-3.62l-.56-.51-.27-.26.26-.27c1.92-2 3.83-2.83 5.12-2.1 1.48.86 1.62 3.45.35 6.61l-.18.45zm-4.48-4.72c.082.088.169.172.26.25 1.23 1.12 2.53 2.22 3.88 3.27.9-2.5.83-4.61-.21-5.21-.88-.5-2.4.16-3.93 1.69z" fill="#000"/><path d="M157.99 126.1a84.57 84.57 0 0 1-4.88-3.32l-.69-.51c1.85-3 4.28-4.65 5.76-3.89 1.48.76 1.48 4.21-.19 7.72z" fill="#fff"/><path d="m158.15 126.64-.36-.23c-1.65-1-3.29-2.16-4.9-3.33l-.46-.34-.51-.38.18-.29c2-3.22 4.6-4.88 6.25-4 1.65.88 1.77 4.46 0 8.22l-.2.35zm-5.22-4.45.4.29c1.48 1.08 3 2.12 4.5 3.08 1.39-3.14 1.49-6.16.18-6.84-1.31-.68-3.36.85-5.08 3.47z" fill="#000"/><path d="m165.75 130.6-.8-.43c-1.51-.82-2.95-1.65-4.33-2.47l-.77-.46c1.9-3.55 4.71-5.72 6.34-4.88 1.63.84 1.46 4.56-.44 8.24z" fill="#fff"/><path d="m166.12 131.25-.85-.46-.51-.28c-1.36-.73-2.78-1.54-4.34-2.47l-.61-.36-.47-.29.17-.31c2.05-3.83 5-6 6.84-5 1.84 1 1.76 4.75-.22 8.65l-.01.52zm-5.78-4.13.46.27c1.56.93 3 1.73 4.32 2.47l.46.25c1.79-3.65 1.69-6.75.43-7.4-1.26-.65-3.91 1.3-5.67 4.41z" fill="#000"/><path d="M173.01 133.95a65.064 65.064 0 0 1-5.38-2.36l-.85-.43c1.21-3.46 3.35-5.8 5-5.33 1.65.47 2.34 4.15 1.23 8.12z" fill="#fff"/><path d="m173.26 134.44-.38-.14a66.19 66.19 0 0 1-5.41-2.38l-.66-.33-.49-.24.11-.32c1.31-3.75 3.61-6.09 5.45-5.56 2 .57 2.68 4.34 1.49 8.58l-.11.39zm-6-3.47.56.29c1.75.85 3.37 1.57 4.95 2.18.89-3.55.43-6.83-1.08-7.25-1.36-.39-3.29 1.69-4.44 4.78h.01z" fill="#000"/><path d="M193.21 139.26c.09-4.75-.13-14.28-3.09-17.24-4-4-10-8-12-5s6 4 6 8v12.37l1 .23c.767.18 1.507.34 2.22.48" fill="#E01700"/><path d="M193.55 139.26h-.75c.07-4.13-.06-14-3-17-3.13-3.13-7.42-6.18-9.94-5.92a1.905 1.905 0 0 0-1.49.86c-.098.13-.17.278-.212.436-.041.158-.05.322-.028.484.16.76 1.29 1.48 2.47 2.24 1.8 1.16 3.84 2.47 3.84 4.64v12.09l.7.16c.77.18 1.51.34 2.21.48l-.14.74c-.72-.15-1.46-.31-2.23-.49-.27 0-.54-.12-.81-.18l-.48-.12v-12.66c0-1.76-1.86-3-3.49-4-1.33-.86-2.58-1.66-2.8-2.73a1.932 1.932 0 0 1 .35-1.48 2.653 2.653 0 0 1 2-1.2c3-.31 7.53 3.13 10.55 6.14 3.02 3.01 3.39 12.27 3.25 17.51z" fill="#000"/><path d="M180.35 136.42c-1.71-.48-3.52-1-5.4-1.73l-.87-.32c1.24-3 3.18-5 4.7-4.54 1.52.46 2.18 3.25 1.57 6.59z" fill="#fff"/><path d="m180.65 136.89-.4-.11c-1.85-.52-3.67-1.11-5.43-1.74l-.8-.29-.36-.14.07-.39c1.37-3.33 3.44-5.24 5.15-4.75 1.71.49 2.5 3.37 1.84 7l-.07.42zm-6.1-2.7.49.18c1.62.59 3.29 1.13 5 1.61.46-3-.11-5.4-1.37-5.75-1.26-.35-2.91 1.26-4.12 3.96z" fill="#000"/><path d="M187.34 138.1c-.713-.14-1.453-.3-2.22-.48l-1-.23c-.65-.15-1.33-.31-2-.49l-.81-.22h-.1c.77-2 1.85-3.38 2.92-3.84a1.77 1.77 0 0 1 1-.13c1.42.25 2.29 2.48 2.21 5.39z" fill="#fff"/><path d="m187.7 138.55-.43-.08c-.72-.15-1.46-.31-2.23-.49-.27 0-.54-.12-.81-.18l-.19-.05c-.66-.15-1.34-.31-2-.49l-.82-.22-.36-.13v-.4c.82-2.07 2-3.55 3.12-4a2.163 2.163 0 0 1 1.25-.15c1.61.31 2.58 2.59 2.5 5.8l-.03.39zm-6-2.15.49.13c.68.18 1.36.34 2 .49h.19l.8.18 1.77.39c0-2.51-.77-4.38-1.89-4.59a1.367 1.367 0 0 0-.81.1 6.181 6.181 0 0 0-2.54 3.3h-.01zM141.12 122.39a.372.372 0 0 1-.29-.14 74.392 74.392 0 0 1-8.36-13.77c-4.57-10-4.44-17.91.39-22.73 11.52-11.53 18.24-8.17 24.18-5.2l.25.13a.38.38 0 0 1-.049.695.365.365 0 0 1-.291-.025l-.25-.13c-6-3-12.17-6.09-23.31 5.06-11.14 11.15 7.83 35.26 8 35.5a.381.381 0 0 1 .07.13.367.367 0 0 1-.13.4.325.325 0 0 1-.21.08z" fill="#000"/><path d="M196.63 146.92a63.087 63.087 0 0 1-16.62-2.54.38.38 0 0 1-.25-.47.38.38 0 0 1 .47-.25c.18.05 18.13 5.53 28.28 0a12.443 12.443 0 0 0 6.25-7.79c4-14-3.1-24.75-8.85-28.58a.355.355 0 0 1-.104-.104.39.39 0 0 1-.056-.135.383.383 0 0 1 .58-.391c5.93 4 13.26 15.05 9.15 29.42a13.16 13.16 0 0 1-6.61 8.24c-3.56 1.96-7.96 2.6-12.24 2.6zM171.94 97.54a4.16 4.16 0 0 1-3.08-1.26c-5.2-5.19 6.49-18 7-18.52a.38.38 0 0 1 .55.51c-.12.13-11.7 12.79-7 17.48a3.454 3.454 0 0 0 2.74 1c5.21-.21 12.63-8.92 12.71-9a.38.38 0 0 1 .57.49c-.32.37-7.72 9-13.25 9.27l-.24.03zM165.12 81.39h-.07c-.21 0-5.15-1.05-8.19-4.1-3.04-3.05-4.07-9.92-4.11-10.21a.377.377 0 0 1 .072-.277.377.377 0 0 1 .522-.074.37.37 0 0 1 .146.241c0 .07 1 6.92 3.9 9.79 2.9 2.87 7.76 3.89 7.8 3.9a.37.37 0 0 1-.07.74v-.01zM209.05 102.48c-5.83 0-11.94-6.9-12.21-7.22a.37.37 0 0 1 .035-.525.371.371 0 0 1 .525.035c.07.08 6.93 7.83 12.66 6.88a59.398 59.398 0 0 0 10.92-3 .372.372 0 0 1 .49.21.378.378 0 0 1-.21.49 62.127 62.127 0 0 1-11.08 3c-.372.074-.75.117-1.13.13z" fill="#000"/><path d="M6.534 328.007c2.704-.561 4.258-4.085 3.472-7.87-.786-3.786-3.615-6.399-6.318-5.838-2.704.562-4.259 4.085-3.473 7.871.786 3.785 3.615 6.398 6.319 5.837z" fill="#5AA129"/><path d="M96.944 207.384c1.05-3.72-.251-7.345-2.909-8.096-2.657-.751-5.663 1.656-6.715 5.377-1.051 3.72.251 7.345 2.908 8.096 2.658.751 5.664-1.657 6.716-5.377z" fill="#000"/><path d="M97.935 207.382c1.052-3.721-.25-7.345-2.907-8.096-2.658-.751-5.664 1.656-6.716 5.376-1.051 3.721.25 7.345 2.908 8.096 2.658.751 5.664-1.656 6.715-5.376z" fill="#5AA129"/><path d="M213.761 173.799c2.628-2.861 3.103-6.702 1.06-8.58-2.044-1.878-5.832-1.081-8.46 1.78-2.629 2.861-3.104 6.702-1.06 8.58 2.043 1.878 5.831 1.081 8.46-1.78z" fill="#000"/><path d="M210.854 174.187c2.619-2.844 3.095-6.666 1.064-8.537-2.032-1.87-5.801-1.081-8.42 1.763-2.619 2.844-3.095 6.665-1.064 8.536 2.032 1.871 5.801 1.081 8.42-1.762z" fill="#5AA129"/><path d="M116.106 318.889c3.49-1.664 5.356-5.033 4.168-7.526-1.188-2.492-4.98-3.165-8.47-1.502s-5.356 5.032-4.168 7.525c1.188 2.493 4.98 3.166 8.47 1.503z" fill="#000"/><path d="M115.448 318.145c3.49-1.663 5.356-5.032 4.168-7.525-1.188-2.493-4.98-3.165-8.47-1.502s-5.356 5.032-4.168 7.525c1.188 2.493 4.98 3.166 8.47 1.502zM196.159 253.837c2.312-3.099 2.392-6.949.179-8.601-2.213-1.651-5.882-.478-8.194 2.62-2.312 3.099-2.392 6.949-.179 8.601 2.213 1.651 5.882.478 8.194-2.62z" fill="#5AA129"/></g><defs><clipPath id="a"><path fill="#fff" d="M0 0h259.14v367.35H0z"/></clipPath></defs></svg>